<svg width="10" height="20" viewBox="0 0 10 20" fill="none" xmlns="http://www.w3.org/2000/svg">
<path d="M4.784 19.26C3.39733 19.26 2.34867 18.87 1.638 18.09C0.927333 17.2927 0.572 16.1573 0.572 14.684V13.644H3.276V14.892C3.276 16.0707 3.77 16.66 4.758 16.66C5.24333 16.66 5.60733 16.5213 5.85 16.244C6.11 15.9493 6.24 15.4813 6.24 14.84C6.24 14.0773 6.06667 13.41 5.72 12.838C5.37333 12.2487 4.732 11.5467 3.796 10.732C2.61733 9.692 1.794 8.756 1.326 7.924C0.858 7.07467 0.624 6.12133 0.624 5.064C0.624 3.62533 0.988 2.516 1.716 1.736C2.444 0.938666 3.50133 0.539999 4.888 0.539999C6.25733 0.539999 7.28867 0.938666 7.982 1.736C8.69267 2.516 9.048 3.64267 9.048 5.116V5.87H6.344V4.934C6.344 4.31 6.22267 3.85933 5.98 3.582C5.73733 3.28733 5.382 3.14 4.914 3.14C3.96067 3.14 3.484 3.72067 3.484 4.882C3.484 5.54067 3.65733 6.156 4.004 6.728C4.368 7.3 5.018 7.99333 5.954 8.808C7.15 9.848 7.97333 10.7927 8.424 11.642C8.87467 12.4913 9.1 13.488 9.1 14.632C9.1 16.1227 8.72733 17.2667 7.982 18.064C7.254 18.8613 6.188 19.26 4.784 19.26Z" fill="white"/>
</svg>
